<?xml version="1.0" standalone="no"?>
<!DOCTYPE svg PUBLIC "-//W3C//DTD SVG 20010904//EN"
 "http://www.w3.org/TR/2001/REC-SVG-20010904/DTD/svg10.dtd">
<svg version="1.0" xmlns="http://www.w3.org/2000/svg"
width="50" height="50" viewBox="0 0 512.000000 512.000000"
 preserveAspectRatio="xMidYMid meet">

<g transform="translate(0.000000,512.000000) scale(0.100000,-0.100000)"
fill="#fff" stroke="none">
<path d="M703 5110 c-107 -25 -212 -113 -261 -218 l-27 -57 -3 -2022 -2 -2023
-100 0 c-111 0 -156 -13 -204 -58 -52 -49 -66 -94 -66 -224 0 -181 37 -277
148 -380 65 -60 139 -99 220 -117 38 -8 545 -11 1840 -11 1482 0 1796 3 1838
14 130 34 238 125 301 252 l38 78 3 236 c3 221 2 237 -16 260 -25 31 -75 31
-105 1 -21 -20 -22 -32 -27 -244 -6 -251 -12 -277 -91 -355 -61 -62 -120 -86
-209 -86 -93 -1 -149 23 -215 89 -71 71 -88 117 -94 266 -6 118 -8 129 -36
175 -22 35 -45 56 -84 76 l-53 28 -1469 0 -1469 0 0 2000 c0 1656 2 2006 13
2033 22 52 68 98 122 123 l50 24 1675 0 1675 0 50 -24 c54 -25 100 -71 122
-123 10 -24 13 -98 13 -298 l0 -267 30 -30 c25 -24 36 -29 58 -24 15 4 35 16
45 28 17 20 18 44 15 313 l-3 291 -32 65 c-39 80 -111 150 -191 187 l-57 27
-1705 2 c-938 0 -1719 -2 -1737 -7z m2794 -4492 c18 -20 21 -40 25 -138 6
-129 25 -194 83 -280 l34 -50 -1607 2 -1607 3 -46 21 c-69 32 -128 91 -161
159 -25 54 -28 70 -28 167 0 99 2 108 22 122 20 14 193 16 1643 16 l1622 0 20
-22z"/>
<path d="M3827 4036 c-46 -17 -59 -27 -122 -93 -58 -61 -73 -64 -168 -32 -152
51 -304 -39 -331 -196 -4 -22 -12 -52 -17 -67 -11 -27 -62 -58 -94 -58 -71 0
-168 -68 -204 -143 -25 -52 -28 -148 -6 -200 8 -20 15 -54 15 -76 0 -35 -5
-44 -49 -81 -71 -60 -105 -128 -105 -210 0 -82 22 -126 98 -199 49 -46 56 -58
56 -91 0 -21 -7 -54 -15 -73 -8 -20 -15 -64 -15 -97 0 -125 87 -227 212 -246
77 -12 118 -44 118 -92 0 -81 68 -185 145 -222 l45 -22 0 -329 c0 -358 2 -376
55 -417 52 -41 83 -32 280 83 99 58 184 105 190 105 5 0 87 -46 180 -101 189
-113 227 -125 283 -90 18 12 37 33 42 47 6 14 10 168 10 363 l0 339 56 27 c62
30 108 85 124 147 6 21 15 56 20 77 12 46 51 81 90 81 89 0 193 77 223 165 22
65 21 112 -4 185 -12 35 -18 71 -15 85 4 14 34 53 69 87 69 69 87 110 87 199
0 70 -27 124 -95 187 -30 28 -57 62 -61 76 -3 14 3 51 17 90 46 137 -4 266
-126 322 -27 13 -63 24 -78 24 -63 0 -117 56 -117 122 0 40 -46 123 -86 156
-39 33 -116 62 -163 62 -14 0 -56 -9 -92 -21 -39 -13 -77 -19 -91 -16 -14 4
-54 35 -89 70 -86 85 -173 108 -272 73z m182 -195 c67 -69 105 -91 176 -98 40
-4 71 0 124 17 60 20 73 21 100 10 43 -17 52 -31 67 -107 16 -76 40 -118 89
-162 34 -30 117 -61 162 -61 29 0 70 -39 79 -75 4 -18 -1 -52 -15 -94 -39
-122 -21 -193 76 -287 58 -57 63 -66 63 -105 0 -38 -5 -47 -59 -98 -33 -31
-67 -71 -76 -90 -28 -56 -30 -128 -6 -196 25 -70 26 -87 7 -124 -16 -30 -53
-51 -94 -51 -39 0 -122 -42 -159 -81 -38 -40 -58 -86 -68 -151 -8 -51 -39 -92
-79 -102 -13 -3 -50 3 -81 14 -122 42 -204 23 -293 -68 -51 -52 -69 -65 -102
-69 -39 -6 -43 -3 -100 56 -32 34 -78 70 -102 81 -57 26 -142 26 -209 0 -43
-17 -57 -19 -86 -9 -40 13 -73 60 -73 104 -1 39 -34 113 -68 148 -37 39 -87
63 -157 76 -98 18 -128 76 -89 169 41 98 5 224 -85 300 -58 49 -70 85 -46 137
10 19 21 35 25 35 17 0 84 77 102 118 24 55 26 143 4 196 -40 96 -9 149 99
171 122 26 196 101 215 220 17 102 72 134 168 96 116 -46 227 -14 307 90 27
34 54 48 94 49 28 0 43 -9 90 -59z m-298 -2027 c75 -78 117 -98 204 -98 87 0
121 16 196 95 49 51 61 59 93 59 80 0 76 16 76 -320 0 -165 -2 -300 -5 -300
-3 0 -65 35 -138 79 -184 109 -194 114 -236 108 -20 -3 -103 -44 -191 -96 -85
-50 -158 -91 -162 -91 -4 0 -8 135 -8 300 l0 301 23 9 c12 5 38 9 58 9 32 1
44 -6 90 -55z"/>
<path d="M3742 3581 c-126 -31 -234 -92 -327 -185 -125 -124 -190 -249 -216
-417 -40 -257 91 -548 311 -694 418 -278 976 -64 1100 421 25 97 27 251 4 343
-95 387 -488 626 -872 532z m290 -142 c94 -19 210 -82 280 -153 111 -110 168
-248 168 -404 0 -164 -50 -282 -170 -403 -87 -87 -165 -131 -280 -155 -252
-53 -515 76 -630 309 -33 68 -60 177 -60 247 0 25 7 77 15 115 65 308 369 507
677 444z"/>
<path d="M934 3888 c-22 -10 -44 -47 -44 -72 0 -7 9 -25 21 -40 l20 -26 810 0
c796 0 809 0 829 20 25 25 26 71 1 101 l-19 24 -799 2 c-538 1 -805 -2 -819
-9z"/>
<path d="M934 3288 c-22 -10 -44 -47 -44 -72 0 -7 9 -25 21 -40 l20 -26 810 0
c796 0 809 0 829 20 27 27 26 81 -1 106 -20 18 -50 19 -818 21 -536 1 -803 -2
-817 -9z"/>
<path d="M934 2688 c-22 -10 -44 -47 -44 -74 0 -8 11 -26 25 -39 l24 -25 806
0 c792 0 805 0 825 20 30 30 27 83 -6 109 -27 21 -32 21 -818 20 -523 0 -798
-4 -812 -11z"/>
<path d="M921 2083 c-11 -10 -24 -32 -27 -50 -5 -26 -1 -37 19 -57 l26 -26
804 0 804 0 21 23 c31 33 29 80 -4 106 -27 21 -33 21 -824 21 -745 0 -799 -1
-819 -17z"/>
</g>
</svg>
