<?xml version="1.0" standalone="no"?>
<!DOCTYPE svg PUBLIC "-//W3C//DTD SVG 20010904//EN"
 "http://www.w3.org/TR/2001/REC-SVG-20010904/DTD/svg10.dtd">
<svg version="1.0" xmlns="http://www.w3.org/2000/svg"
 width="50" height="50" class="me-2" viewBox="0 0 512.000000 512.000000"
 preserveAspectRatio="xMidYMid meet">

<g transform="translate(0.000000,512.000000) scale(0.100000,-0.100000)"
fill="#fff" stroke="none">
<path d="M462 5107 c-52 -16 -128 -90 -149 -145 -17 -45 -18 -148 -18 -2402 0
-2254 1 -2357 18 -2402 22 -58 98 -129 155 -146 57 -17 4127 -17 4184 0 57 17
133 88 155 146 17 45 18 148 18 2402 0 2652 8 2404 -78 2488 -80 78 112 72
-2191 71 -1427 -1 -2071 -4 -2094 -12z m4180 -166 l33 -29 3 -2309 c2 -1269 0
-2328 -3 -2352 -5 -30 -16 -54 -35 -73 l-28 -28 -2051 0 -2051 0 -32 29 -33
29 0 2352 0 2352 33 29 32 29 2050 0 2050 0 32 -29z"/>
<path d="M873 4690 c-45 -18 -55 -72 -22 -114 l20 -26 585 0 c571 0 584 0 604
20 30 30 27 83 -6 109 -26 21 -35 21 -593 20 -311 0 -576 -4 -588 -9z"/>
<path d="M2327 4680 c-34 -27 -37 -80 -7 -110 19 -19 33 -20 239 -20 l220 0
20 26 c26 33 27 65 2 95 -19 24 -22 24 -233 27 -205 3 -215 2 -241 -18z"/>
<path d="M974 4306 c-45 -20 -102 -74 -127 -120 l-22 -41 0 -1385 0 -1385 22
-41 c28 -52 95 -111 142 -124 23 -6 423 -10 1083 -10 l1047 0 20 26 c28 36 26
60 -8 95 l-29 29 -1036 0 -1035 0 -28 24 -28 24 0 1362 0 1362 28 24 c28 24
28 24 278 24 l251 0 29 29 c34 35 36 59 8 95 l-20 26 -272 0 c-205 -1 -280 -4
-303 -14z"/>
<path d="M1760 4300 c-25 -25 -26 -71 -1 -101 l19 -24 1161 -5 1160 -5 23 -23
23 -23 0 -1359 0 -1359 -23 -23 c-22 -23 -24 -23 -398 -28 l-376 -5 -19 -24
c-25 -30 -24 -76 1 -101 19 -19 33 -20 393 -20 215 0 387 4 408 10 47 13 114
72 142 124 l22 41 0 1385 0 1385 -22 41 c-25 48 -83 101 -129 120 -28 12 -233
14 -1199 14 -1152 0 -1165 0 -1185 -20z"/>
<path d="M2425 3585 c-375 -68 -645 -408 -622 -785 10 -160 51 -278 143 -406
l51 -71 -55 -48 c-116 -103 -220 -278 -262 -440 -24 -94 -20 -142 17 -186 58
-68 5 -64 863 -64 858 0 805 -4 863 64 37 44 41 92 17 186 -42 162 -146 337
-262 440 l-55 48 51 71 c92 128 133 246 143 406 29 484 -414 873 -892 785z
m315 -164 c287 -90 471 -391 421 -687 -15 -88 -85 -232 -145 -300 -142 -161
-378 -237 -589 -190 -332 74 -541 412 -457 740 57 224 237 401 460 451 85 19
224 13 310 -14z m-564 -1236 c128 -77 259 -109 419 -102 145 7 263 44 386 123
26 17 27 17 74 -21 65 -54 149 -164 190 -249 35 -74 68 -183 59 -198 -7 -11
-1481 -11 -1488 0 -15 25 50 197 110 289 37 56 167 193 184 193 4 0 34 -16 66
-35z"/>
<path d="M992 947 c-44 -14 -118 -81 -143 -129 -62 -121 -11 -277 110 -340
128 -67 285 -17 350 111 103 202 -98 429 -317 358z m146 -153 c12 -8 29 -29
38 -46 53 -102 -81 -197 -168 -119 -28 25 -33 36 -33 76 0 40 5 51 33 76 37
33 93 39 130 13z"/>
<path d="M1702 934 c-91 -45 -141 -127 -142 -229 0 -190 193 -312 365 -231 93
44 144 126 145 232 0 189 -198 313 -368 228z m161 -135 c38 -19 57 -51 57 -97
0 -63 -40 -102 -105 -102 -65 0 -105 39 -105 102 1 82 81 134 153 97z"/>
<path d="M2462 947 c-45 -14 -118 -81 -144 -131 -30 -57 -30 -165 0 -222 49
-96 127 -143 233 -144 89 0 160 36 206 104 79 116 66 242 -34 338 -63 62 -171
84 -261 55z m160 -166 c28 -25 33 -36 33 -76 0 -40 -5 -51 -33 -76 -87 -78
-221 17 -168 119 35 69 112 83 168 33z"/>
</g>
</svg>
